<?xml version="1.0" encoding="UTF-8"?>
<svg width="210px" height="210px" viewBox="0 0 210 210" version="1.1" xmlns="http://www.w3.org/2000/svg" xmlns:xlink="http://www.w3.org/1999/xlink">
    <title>添加照片</title>
    <defs>
        <rect id="path-1" x="0" y="0" width="210" height="210" rx="16"></rect>
        <mask id="mask-2" maskContentUnits="userSpaceOnUse" maskUnits="objectBoundingBox" x="0" y="0" width="210" height="210" fill="white">
            <use xlink:href="#path-1"></use>
        </mask>
    </defs>
    <g id="页面-1" stroke="none" stroke-width="1" fill="none" fill-rule="evenodd">
        <g id="一键报警-3填写事件信息1" transform="translate(-32.000000, -916.000000)">
            <g id="内容" transform="translate(0.000000, 200.000000)">
                <g id="表单" transform="translate(0.000000, 69.000000)">
                    <g id="03" transform="translate(0.000000, 551.000000)">
                        <g id="添加照片" transform="translate(32.000000, 96.000000)">
                            <use id="Rectangle-8" stroke="#D0D0D0" mask="url(#mask-2)" stroke-width="4" fill="#F5F5F5" stroke-dasharray="6,4" xlink:href="#path-1"></use>
                            <path d="M106.578947,75 C106.859649,75 107,75.2222222 107,75.6666667 L107,103 L134.302326,103 C134.767442,103 135,103.140351 135,103.421053 L135,106.578947 C135,106.859649 134.767442,107 134.302326,107 L107,107 L107,134.333333 C107,134.777778 106.859649,135 106.578947,135 L103.421053,135 C103.140351,135 103,134.777778 103,134.333333 L103,107 L75.6976744,107 C75.2325581,107 75,106.859649 75,106.578947 L75,103.421053 C75,103.140351 75.2325581,103 75.6976744,103 L103,103 L103,75.6666667 C103,75.2222222 103.140351,75 103.421053,75 L106.578947,75 Z" id="形状" fill="#666666"></path>
                        </g>
                    </g>
                </g>
            </g>
        </g>
    </g>
</svg>