<?xml version="1.0" encoding="UTF-8"?>
<svg width="120px" height="120px" viewBox="0 0 120 120" version="1.1" xmlns="http://www.w3.org/2000/svg" xmlns:xlink="http://www.w3.org/1999/xlink">
    <title>报警成功</title>
    <g id="页面-1" stroke="none" stroke-width="1" fill="none" fill-rule="evenodd">
        <g id="一键报警-5报警成功页" transform="translate(-315.000000, -276.000000)" fill="#3AC707" fill-rule="nonzero">
            <path d="M375,396 C353.564065,396 333.756444,384.564065 323.038476,366 C312.320508,347.435936 312.320508,324.564065 323.038476,306 C333.756444,287.435935 353.564065,276 375,276 C408.137086,276 435,302.862916 435,336 C435,369.137085 408.137086,396 375,396 L375,396 Z M369.188573,351.797143 L352.028572,334.431429 L340.714287,345.24 C348.942858,349.671429 360.47143,357.754286 370.345715,370.285715 C377.322858,357.171429 398.828573,330.342857 409.285716,327.942857 C407.597144,321.18 406.645716,308.485714 409.285716,301.714286 C387.840001,315.857143 369.188573,351.797143 369.188573,351.797143 Z" id="报警成功"></path>
        </g>
    </g>
</svg>