<?xml version="1.0" encoding="UTF-8"?>
<svg width="28px" height="28px" viewBox="0 0 28 28" version="1.1" xmlns="http://www.w3.org/2000/svg" xmlns:xlink="http://www.w3.org/1999/xlink">
    <title>注意</title>
    <g id="页面-1" stroke="none" stroke-width="1" fill="none" fill-rule="evenodd">
        <g id="一键报警-5报警成功页" transform="translate(-188.000000, -706.000000)" fill="#FFBF25" fill-rule="nonzero">
            <g id="注意" transform="translate(188.000000, 700.000000)">
                <path d="M14.0002046,6 C8.33781596,6 3.23298253,9.41094063 1.06608019,14.6423056 C-1.10082215,19.8736706 0.0969409182,25.8952322 4.10085435,29.8991457 C8.10476778,33.9030591 14.1263294,35.1008222 19.3576944,32.9339198 C24.5890594,30.7670175 28,25.662184 28,19.9997954 C27.9882716,12.2727851 21.7272149,6.01172835 14.0002046,6 L14.0002046,6 Z M16.6322655,16.7199245 L13.9185628,26.1477785 C13.8087441,26.4892784 13.7355647,26.8414915 13.7002597,27.1984731 C13.7037377,27.2965075 13.7428637,27.3899051 13.8102987,27.4611468 C13.8736969,27.5421429 13.9701365,27.5903628 14.0729723,27.5924836 C14.2450223,27.5847465 14.4083934,27.5147304 14.5326512,27.3954784 C15.087612,26.8741085 15.5656758,26.2765287 15.9525087,25.6206564 L16.4121876,25.8833301 C15.0775215,28.2030224 13.6558892,29.3619811 12.1685884,29.361981 C11.6636132,29.3887641 11.1683386,29.2160235 10.7895518,28.8810043 C10.4499068,28.5667128 10.2661337,28.1186442 10.2872772,27.6563772 C10.2998959,27.2339062 10.3734215,26.8154679 10.5055803,26.4140018 L12.3425209,20.0707883 C12.4879309,19.624038 12.5761907,19.1606744 12.6051946,18.6917516 C12.6033452,18.4835157 12.5066385,18.2874887 12.3425209,18.159305 C12.1521743,18.0035852 11.9099842,17.9256026 11.664539,17.9410019 C11.5039332,17.9385783 11.3433252,17.9456901 11.1835622,17.9622998 L11.3610444,17.4298532 L15.8442446,16.7199245 L16.6322655,16.7199245 L16.6322655,16.7199245 Z M17.1789107,13.9423281 C16.6862284,14.4308889 15.970327,14.6194948 15.3008798,14.4370998 C14.6314326,14.2547048 14.1101444,13.729019 13.9333795,13.0580632 C13.7566146,12.3871073 13.9512278,11.6728156 14.4439101,11.1842548 C15.0026957,10.6309005 15.8389368,10.4668346 16.5653812,10.7680338 C17.2918255,11.069233 17.766633,11.7768873 17.7699264,12.5632915 C17.7698572,13.0839465 17.5562239,13.5817826 17.1789107,13.9405533 L17.1789107,13.9423281 Z"></path>
            </g>
        </g>
    </g>
</svg>